<svg version="1.1" id="Layer_1" xmlns="http://www.w3.org/2000/svg" xmlns:xlink="http://www.w3.org/1999/xlink" x="0px" y="0px"
	 width="100%" viewBox="0 0 513 512" enable-background="new 0 0 513 512" xml:space="preserve">
<path fill="#FFFFFF" opacity="1.000000" stroke="none" 
	d="
M0.999997,470.000000 
	C1.000000,328.309998 1.000000,186.620026 1.337638,44.761753 
	C2.040001,44.256714 2.636613,43.977341 2.736199,43.574959 
	C7.772796,23.223978 19.870569,9.391014 40.036537,2.902583 
	C40.512474,2.749449 40.685623,1.655255 41.000000,1.000000 
	C185.023331,1.000000 329.046661,1.000000 473.240387,1.325890 
	C473.736176,2.028255 473.993225,2.623935 474.396790,2.749747 
	C494.593201,9.046736 506.958099,22.631083 512.104797,43.028614 
	C512.219421,43.482891 513.345642,43.681911 514.000000,44.000000 
	C514.000000,185.689987 514.000000,327.379974 513.662354,469.238251 
	C512.959961,469.743286 512.363342,470.022675 512.263733,470.425018 
	C507.227203,490.776093 495.129425,504.609039 474.963379,511.097412 
	C474.487457,511.250549 474.314331,512.344727 474.000000,513.000000 
	C329.976685,513.000000 185.953354,513.000000 41.759598,512.674072 
	C41.263763,511.971741 41.006714,511.376038 40.603168,511.250244 
	C20.406790,504.953217 8.041904,491.368896 2.895231,470.971344 
	C2.780618,470.517090 1.654355,470.318085 0.999997,470.000000 
M200.365265,165.921173 
	C182.624130,213.502701 219.623932,259.796631 269.505493,252.429016 
	C294.443237,248.745651 316.420959,227.699768 321.095276,203.026505 
	C326.204132,176.059296 314.513977,149.065933 292.036194,135.927139 
	C257.967163,116.012985 217.713364,128.912949 200.365265,165.921173 
M233.885986,341.394562 
	C236.432541,333.900635 240.128571,326.586853 241.335709,318.883057 
	C248.224152,274.921539 207.517395,237.904709 164.344238,248.438705 
	C132.019806,256.325684 112.017120,286.105225 116.561562,319.576477 
	C120.029854,345.121552 140.880554,367.232330 166.068710,372.075562 
	C193.190231,377.290527 220.220840,365.235504 233.885986,341.394562 
M293.580017,353.915375 
	C312.584839,372.565613 335.061340,378.300262 360.042358,369.470581 
	C385.269226,360.554016 399.694580,341.619659 402.010620,315.058044 
	C405.638367,273.453339 368.798462,241.245071 329.829590,247.524841 
	C304.735321,251.568756 287.472443,265.814148 279.272858,289.567749 
	C271.125732,313.169312 276.191559,334.788544 293.580017,353.915375 
z"/>
<path fill="#026AF5" opacity="1.000000" stroke="none" 
	d="
M200.510498,165.566330 
	C217.713364,128.912949 257.967163,116.012985 292.036194,135.927139 
	C314.513977,149.065933 326.204132,176.059296 321.095276,203.026505 
	C316.420959,227.699768 294.443237,248.745651 269.505493,252.429016 
	C219.623932,259.796631 182.624130,213.502701 200.510498,165.566330 
z"/>
<path fill="#010101" opacity="1.000000" stroke="none" 
	d="
M233.686127,341.701721 
	C220.220840,365.235504 193.190231,377.290527 166.068710,372.075562 
	C140.880554,367.232330 120.029854,345.121552 116.561562,319.576477 
	C112.017120,286.105225 132.019806,256.325684 164.344238,248.438705 
	C207.517395,237.904709 248.224152,274.921539 241.335709,318.883057 
	C240.128571,326.586853 236.432541,333.900635 233.686127,341.701721 
z"/>
<path fill="#010101" opacity="1.000000" stroke="none" 
	d="
M293.330444,353.665833 
	C276.191559,334.788544 271.125732,313.169312 279.272858,289.567749 
	C287.472443,265.814148 304.735321,251.568756 329.829590,247.524841 
	C368.798462,241.245071 405.638367,273.453339 402.010620,315.058044 
	C399.694580,341.619659 385.269226,360.554016 360.042358,369.470581 
	C335.061340,378.300262 312.584839,372.565613 293.330444,353.665833 
z"/>
</svg>